<svg width='200' height='200' fill="#000000" xmlns="http://www.w3.org/2000/svg" xmlns:xlink="http://www.w3.org/1999/xlink" version="1.1" x="0px" y="0px" viewBox="0 0 100 100" enable-background="new 0 0 100 100" xml:space="preserve"><g><path d="M50.9,58.5c0-11.5,8.7-21.1,19.9-22.4c1.3-0.2,2.7-0.4,4-0.4c4.4,0.2,8.3,1.4,11.7,3.5c1.8-4.9,1.8-10-1.1-15.1   c-3.2-5.3-9.3-8.6-16.2-8.6c-6.3,0-12.1,2.8-15.3,7.6l-3,4.2l-2.8-4.2c-3.2-4.8-9-7.6-15.3-7.6c-6.9,0-13,3.3-16.2,8.6   c-7,11.7,2.1,23.2,13.1,33.9c4.5,4.5,15.9,14.4,21.3,18.9c1.4-1.1,3.1-2.7,5.1-4.4C52.8,68.8,50.9,63.9,50.9,58.5z M61.4,77.5   c-4.1,3.5-7.5,6.4-8.2,7l-2.3,2l-2.1-2c-3.4-2.8-18.6-15.8-24.1-21.1c-7.5-7.3-25.1-24.6-14.2-42.7C15,13.1,23.3,8.6,32.7,8.6   c7,0,13.7,2.7,18.3,7.2c4.6-4.7,11.3-7.2,18.3-7.2c9.4,0,17.6,4.5,22.3,12.1c4.9,8.3,4,16.5,0.6,23.5C95.3,48,97,52.8,97,58   c0,7.6-3.9,14.4-9.7,18.4l-0.1,0.1c-3.8,2.9-8.5,4.6-13.6,4.6C69,81.1,64.9,79.8,61.4,77.5z M73.9,75.1c9.4,0,17-7.6,17-17   c0-9.3-7.5-16.9-16.9-17c0,0-0.1,0-0.1,0c-9.3,0-17,7.6-17,17c0,9.3,7.5,16.9,16.8,17C73.8,75.1,73.9,75.1,73.9,75.1z"/><path d="M73.4,55.7v-1.5v-0.5v-1.4c-0.9,0.2-1.5,0.7-1.5,1.8C71.9,55.1,72.6,55.6,73.4,55.7z M76.5,62.6c0-0.4-0.1-0.7-0.2-0.9   c-0.2-0.5-0.7-0.8-1.3-1v3.7c0.6,0,1.1-0.4,1.3-1C76.5,63.1,76.5,62.8,76.5,62.6z M73.4,48.7v-1.2c0-0.5,0.3-0.7,0.7-0.7   c0.6,0,0.7,0.3,0.7,0.7v1.2c1.7,0,4.8,0.6,4.8,2.8c0,1-0.8,1.9-1.8,1.9c-1,0-1.8-1-3-1v3.7c3,0.9,6.1,2.2,6.1,5.9   c0,4.2-3.4,6.1-6.1,6.3v1.2c0,0.4-0.3,0.7-0.7,0.7c-0.6,0-0.7-0.3-0.7-0.7v-1c-1.8-0.2-6.1-0.6-6.1-3.1c0-1.2,0.9-2.2,1.9-2.2   c0.9,0,2.2,1.2,4.2,1.2v-4.2c-4.5-1.3-6-3-6-5.4C67.4,51.3,70.1,49,73.4,48.7z"/><path fill="#000000" d="M72.8,53.8v0.5c0,0,0-0.1,0-0.2C72.7,54,72.7,53.9,72.8,53.8z"/></g></svg>